<mxfile host="app.diagrams.net" modified="2022-12-09T10:40:20.510Z" agent="5.0 (Windows NT 10.0; Win64; x64) AppleWebKit/537.36 (KHTML, like Gecko) Chrome/108.0.0.0 Safari/537.36" etag="BmWxcDERSrXXqWO40zAc" version="20.6.0" type="github" pages="2">
  <diagram id="TRc0_TJFF8gz6N1xRdy9" name="User Input">
    <mxGraphModel dx="1316" dy="802" grid="1" gridSize="10" guides="1" tooltips="1" connect="1" arrows="1" fold="1" page="1" pageScale="1" pageWidth="827" pageHeight="1169" math="0" shadow="0">
      <root>
        <mxCell id="0" />
        <mxCell id="1" parent="0" />
        <mxCell id="cmwDNAxW-YF2_pqLreoF-1" style="edgeStyle=orthogonalEdgeStyle;rounded=1;orthogonalLoop=1;jettySize=auto;html=1;exitX=1;exitY=0.5;exitDx=0;exitDy=0;entryX=0;entryY=0.5;entryDx=0;entryDy=0;entryPerimeter=0;labelBackgroundColor=none;fontSize=11;fontColor=#FF2908;startArrow=none;startFill=0;" parent="1" source="cmwDNAxW-YF2_pqLreoF-2" target="cmwDNAxW-YF2_pqLreoF-4" edge="1">
          <mxGeometry relative="1" as="geometry" />
        </mxCell>
        <mxCell id="cmwDNAxW-YF2_pqLreoF-2" value="" style="shape=image;verticalLabelPosition=bottom;labelBackgroundColor=default;verticalAlign=top;aspect=fixed;imageAspect=0;image=data:image/png,iVBORw0KGgoAAAANSUhEUgAAAIMAAAAwCAYAAAAyw8m9AAAAAXNSR0IArs4c6QAAAARnQU1BAACxjwv8YQUAAAAJcEhZcwAADsMAAA7DAcdvqGQAAA5ySURBVHhe7ZwLkBTVFYZPz3NndhcUNCIloigPn6iREEQ3PIxbCKKFIphERQuIG7BEVNYYpSwkGjBaoKyokCBqIYIaIcHUYiGWaChLLeWhEipgEAtEXgK7s495dM5/+vZMd0/37C6wi5L+qrpmuvv27e57/3vuOefOrqYz5OPDBNSnj48vBp8cvhh8shw1nyG96T+U2fIVpd7/iNKbt5D+9S6ixkY5p53YnujUkyh04TkU7HsxBbufRYEuneWczw+HIxNDbYIaq1dTctlKyqzbRHQwQRQKEsUixnlNMz5xi1SaKMkbPju2p+BFvShy+038eT5psahRzueYcthiSK39hOoffoIyG7byyC82RGB2flPglnWNpNfUU2jo5RS95w4K9jpbnfQ5VrRcDGwN6qbPomTVa6R1OZEoHFInFGZ1sABWIBbgFEyigfRvD1J0xl0UrbhVHfQ5FrRIDPr+A1Q7djLpG7YQxR2mHdUcqpMpQjvtFKKSGGklJcapmhqivQdJ37Fb9mUasYpCXRscWkaxmVP9aeMY0WwxiBBGV5D+1Q67EPhyffdB7vgiitx9G4X6/ZQCnTuR9pOTVAEuUsejf89eynyzk5LLqym5cDlpRWGi0lhOFKYgBvel+Lw/G8d82pTmiYGnhppb7sy3CGziqX0JRSbcTNExo9TBZsD11T/3IiWfXczTDE8flqlG/+4AhW8dTrHHHlBHDg8IsK0tDO7phfksXmVwvjnXtybNEkPd7x+l1Osr7ULgyCFwxSUUm1552GFi+rONVFf5aL614bojj95D0dHXqQPNA9Yr9el6Sr29hi3Rvja3MGgnhNV51NRRbPY0Sq3+gJJvVssUaoOn0OK/zaeGZxdS6uN16qCd2EN3S+TVmjQpBnRYbdktpHU7WR1huLO0vudT8V9nHbFiM9t3UOLGCaQfPJizEHgknj6K/76gSaFhNKXeeY9SH31K6eq1lNm2U6YgrXsXKqlepEq1DTU38TT6yZeGtbOg76+l4rfmU/Kf71By3tJc6K3Qt++n0m2rqW7qTEqveC/vPELy2MInZApuTQpnIBE58MiVqMGEpwbM604hoFOReNK/26OO5JMtwyPYBJ1dvGweae3a8UunjIPwI/g+9TOrjH0vMH31Lqe6cQ9RatFbpCdq2Vdpn9+YbYk57Vk28Y+KiozziKoc5204z8u+XVytRUExJN/9QPII2QfGiGUfoWjqZNsc2DB3ISVuvou3SVR7Y4XsW+c/dH7dwzPFAkgZdkQb31ihznLfs7NZ9OSDxo5pqHjaSL2+SsTjhR4IktbxRNJOZiFhmnGGrW1NY6NYAUm+WTZ9Dx+rr1eFCoPci+16dqqlzjag4DRRe+tdlPl4Y04M/HCRqRNtziI6vqFytmE9oOJUWsxe9KnKbLnEnX+QjpVOA6pM7M3ZFB50hXGMyfNN+H7hib+mosl3GPsOILjaQaPFItiEwBYG4W1bTxPJd9ZQ5ru9as9OpHyg+ATJBW/Y/SNG37pbpgn4O5mv2X9yIXL1YFuE1hp4igEjMjF6gjFS0dD45E4s/XyVKmGY/doR4401CGdnnNyBipfMpcyOb9kiTMzPLaDMhT1s0w3qq+k7wjD1QHVq8UtP5TUEMqB6HUcllTPy78/PqsWLKXxL0w5ooGc3myBhsfRd9qkOjpt1vpZOd+u0Insnm2iRMIWHXEkNs57zFEO7ne9Tav2XlN62XR21E73mKqLiuNozwGCAT5esZgu64d+yHqSFeEo6oxOFy35OoYH9W5TZ9RRDcsXbVH/nNKJ26gFgFe4ba8sS4kESY+7JCcZE7ccXV7EYdlL9WA4TzXpMPDoaViRd/YHRYKiHzWT8rQV5L3WoxwAxqWJtrPc2UdcWQq9PUqDfeVTy4tPS0PB3aq8dZxODWab45WdEtGKNhvyGMpu3G75AE8j1XU8Vv6jhL4sKiiGb2T2pWJ1RsMWNL59vawNZDnhqvuGwItuLwQbLLCd5v44HSGmMgmV9KDrhtmaJwtNngHeerRwNyzdzerNaxw48hbg3iBaLk8YNjE+pB3U46dBeylgJDbzMeBmgOjnFosuDfRdPIQAchwCxcaNoF/eQBTJJdKnjuF7/dDPp7IiC9JZtpO/dby/DViqz9nNJmoEMj1z9+4PGvVUZqZ+jF+30TrZr5Xqs27RzhJJeRNnZ7GSpFxvqc4inYfGblLieI7D1mw0RoBymcrwzNnzHMQYDKzF8rAzcpvAUA8xO1ovlzsEoRmbRCiKB0NAyyUBKZ6sN+6GR5cZ5ZCT79TZGqbUM+wyRkcPyTF+wW1fjBVEOsJAy674wvh8uPEpC/ftQ4NyzckID3HAYuamNPLoYmFvBITBYgOSqNfI9/QW3Cxw7axnUX14my/S2+lsBCKFh/DRDjKYAvMA5CIn7MTGioklBeEcTO/blLAPAKHZxYGL3TaTw+BHGjWGaIhHZj1bcpkpwmemVsu4gcBnM51iYiowYahyzIIKLW0YSv0hmxy61YyGZbLrhTfFBzFxvsBeLAcvoFpBGT3/IVpBJLa02hOiEj6U/WS9fU6v/ZW8XwPWH+rHYShzm/SgDn6rxifmkncn94CYC832dQDT8zHUzqmxRnhNPMTg9dM8X5ZEde3iK+AfxJXOo+I3nZd+ag4CFiD/9R4q/+oyUiS+p8l6hLC1VX3LIQpcD7QQeGcDt5U0cDRYa0N8I3ayw2NKbtkhDw1q5NjKs04bNRp5kzcd2waj744c7eiMLtJXAdNr48mtEew/kPyM/A9L4Mhh5k+/OdmELoX+4saB1KJhn+CFT8u5SiWxgZfJeHImxKy6l0s+qqXTdSirdukZS2+gwiVSs5bmj9W93S4LLllyzwo2PFVfpDOcUAasDf4Q7S1e/7DrqsF+m791HyVdXGD6EFbwLW+PYy49T6eZ3ZYvNe8QQhrNdWMSNi9iB9cBTDM5GztR4JD6QpURCicNQhJAINbFvNUcYUYgSEqN+J2WQfEJ+wpVDh9SXHOZSuJNCJs8V7rDQkF8YDWWCjt611xjxZj7FDW5I187gusIjr1E7rQPCxZRX8o19sfBNw2zhcXjoLyl0PYei1vcEysJ54W0ZOnOkYJ2T9x1wTTXXPT6Hks+z2iAcmE8eHdhvmLtAleAyD84wcu6Ay2AKQqLKmoU0QV6CEpaQkOf4QOdT1M6RE+h9rv29mgusAd7RahWwz+IItfICkoAUvnOkM3CAgxedp/ZyuL4nhG9ZCnDiKYbgBT1zzhZM6Te7jI6ygBGf4k7Ohnhqwz6cMTnP8XBm7TpjRFnLsEluXPoPsSxW0lu3GYpGOcAvJC92lIgMutxIDzdFMpXf+OYzmWCK4Agl0LWLOtCKxNTahgNEOgh186h3sZr8PmLxPfAUQ6jPxTlloRG4g9CxVjCPiVfvArKDiN/xKfU4GxLsY2vjEIPNW1ed0eKRhwhkDz+bC4iIApcgqlCLYm7wucCl53PMz167y2jMwm0S6tPb5iy3BnqKR3/Ps93bENPXspW2EQ8LnnxlmWGprUC8PU5XO/l4iiFw1plG4sJsDB7ZjXNeNL4rPJNOuCl7+4EOJ/Cm1izcGpXDVWv0IJbkdY71zSQL6uneReppETz3IzPX8MKrkkmFf2IVcmj4YMP6eMHnwtdeRcF+FxUsBwsTZkvT6vCAC5x2KmnndJM2scHvCsubmDRVpl1stRWVxm9EHD4QFrxCQwaqvXy8p4leZ7N57pW7ubIOaGAThIyR20fyjdmXMM0qfyJEC4+5QUYh8vrBcg7prIkpVSY67le2UdXwzAsS92fByCsvc81vZInyCzsbCLCgGqfNkeVt+CeZnbkpTjoQo8ZNoIx08uV9KXLd1fmhqAlfGzivKwV6dlcHWhdY0FjlBEOczufmd8WCYsO9f5JN3/Tf3IAygbXr0UUWzLzwdiCZyI3D7MunsA5VL8kINomMGS0JJCxMIcTBpySURuUWiWLTpkgiSuYrlDntFCp64RGbB4yRm1rOVsFi2uAcha++Uu3lAyEFLuCwzpFIysKWTULJEru5DHbvRlqvM9xFhEbjaUSmE/YFsK7gKhrulGB5v1afIqxgYIXHjXRfc4EVgCU3U9NW8Pz8vNH7xht/0ORBQTGEB/TnxmbThFEPYB0O1FD9tCezYR0aAwmk+EuzeZslK5XYtzYSHkASU0uqjDKL59qyj5jj6idPN3bMeTHRwOHR4CYXWLCW4Tl6veAQM9gjPxspcKOFRw2Tr3ju4IA+xmh0wkISv6qNiU76rfzc0DWx5AasMFtuLDIi5CxEQTFIdnHGA0ZmzoTNT3rVh1R7+yRbnI8pAx1XyKRny1jUCSsjK4XOn73xfYqmsFlsAogKf4gjjQPR4lrnVpPfmeHh5fL3GrZyuB6h4sD+qhSPRnYQRWzWctiY0GU/k08bEJijnA1YI+t5Zxmcx3OYm1legUFWvHA2Re4dY4gUSTC39+ZjaBNY6tgrM7wzvhYKi4ER0zThBhmpWdgUIbWZuGOKbcpoKbIEPvZeY6XQatrYDEburxDxNIf4rGkUfajCMP2wLGhANBR/R0QQGjUobxSLT8RzPqat7MbP4AwV4TvIUrW1HOrty9GGw+RqOIe52loW6yzmD2CjvN+xvVxn27DWwOCnf7L6ye9h2/iZnKu7+MEPlrUxbUgZPIu6p9R5YQ+KPnm//NC2KYtg0qxfR8tvDX8MP5XnetMQZ329WC3xKRx/w2EFQnaGtmh0pwjdfnqHCMdZr1t9JjLd8bnMvu/VETvmPb2yqoV8E1yDJXbz3m7P1hyaJwYGcWyb/BHN0DJZ1PJpe5otBiCC8P+87rilRWIQ2BT5f3h7fNJyMSjkN3j+n+QfVxy2GAS2Ev4/6zh+ODIxWIDH7f8bnx83R00MPj9+mkw6+fz/4IvBJ4svBp8svhh8svhi8Mnii8Eniy8GHwXR/wABvkqZLAA7EgAAAABJRU5ErkJggg==;imageBorder=default;" parent="1" vertex="1">
          <mxGeometry x="80" y="60.00000000000003" width="131" height="48" as="geometry" />
        </mxCell>
        <mxCell id="cmwDNAxW-YF2_pqLreoF-3" style="edgeStyle=orthogonalEdgeStyle;rounded=1;orthogonalLoop=1;jettySize=auto;html=1;exitX=1;exitY=0.5;exitDx=0;exitDy=0;exitPerimeter=0;entryX=0;entryY=0.5;entryDx=0;entryDy=0;entryPerimeter=0;labelBackgroundColor=none;fontFamily=Verdana;fontSize=11;fontColor=#000000;startArrow=none;startFill=0;" parent="1" source="cmwDNAxW-YF2_pqLreoF-4" target="cmwDNAxW-YF2_pqLreoF-6" edge="1">
          <mxGeometry relative="1" as="geometry" />
        </mxCell>
        <UserObject label="api_twilio_callback&lt;br&gt;POST /twilio-user-input" id="cmwDNAxW-YF2_pqLreoF-4">
          <mxCell style="sketch=0;points=[[0,0,0],[0.25,0,0],[0.5,0,0],[0.75,0,0],[1,0,0],[0,1,0],[0.25,1,0],[0.5,1,0],[0.75,1,0],[1,1,0],[0,0.25,0],[0,0.5,0],[0,0.75,0],[1,0.25,0],[1,0.5,0],[1,0.75,0]];outlineConnect=0;fontColor=#232F3E;gradientColor=#FF4F8B;gradientDirection=north;fillColor=#BC1356;strokeColor=#ffffff;dashed=0;verticalLabelPosition=bottom;verticalAlign=top;align=center;html=1;fontSize=12;fontStyle=0;aspect=fixed;shape=mxgraph.aws4.resourceIcon;resIcon=mxgraph.aws4.api_gateway;" parent="1" vertex="1">
            <mxGeometry x="280" y="60" width="48" height="48" as="geometry" />
          </mxCell>
        </UserObject>
        <mxCell id="cmwDNAxW-YF2_pqLreoF-5" style="edgeStyle=orthogonalEdgeStyle;rounded=1;orthogonalLoop=1;jettySize=auto;html=1;exitX=1;exitY=0.5;exitDx=0;exitDy=0;exitPerimeter=0;entryX=0;entryY=0.5;entryDx=0;entryDy=0;entryPerimeter=0;labelBackgroundColor=none;fontFamily=Verdana;fontSize=11;fontColor=#000000;startArrow=none;startFill=0;" parent="1" source="cmwDNAxW-YF2_pqLreoF-6" target="cmwDNAxW-YF2_pqLreoF-8" edge="1">
          <mxGeometry relative="1" as="geometry" />
        </mxCell>
        <mxCell id="cmwDNAxW-YF2_pqLreoF-6" value="&lt;div style=&quot;font-size: 9.8pt;&quot;&gt;twilio-callback&lt;/div&gt;" style="outlineConnect=0;dashed=0;verticalLabelPosition=bottom;verticalAlign=top;align=center;html=1;shape=mxgraph.aws3.lambda_function;fillColor=#F58534;gradientColor=none;labelBackgroundColor=none;fontSize=11;fontColor=#000000;fontFamily=Verdana;aspect=fixed;" parent="1" vertex="1">
          <mxGeometry x="420" y="60" width="48" height="48" as="geometry" />
        </mxCell>
        <mxCell id="cmwDNAxW-YF2_pqLreoF-7" style="edgeStyle=orthogonalEdgeStyle;rounded=1;orthogonalLoop=1;jettySize=auto;html=1;exitX=1;exitY=0.5;exitDx=0;exitDy=0;exitPerimeter=0;entryX=0;entryY=0.5;entryDx=0;entryDy=0;entryPerimeter=0;dashed=1;labelBackgroundColor=none;fontFamily=Verdana;fontSize=11;fontColor=#000000;startArrow=none;startFill=0;endArrow=classic;endFill=1;" parent="1" source="cmwDNAxW-YF2_pqLreoF-8" target="cmwDNAxW-YF2_pqLreoF-10" edge="1">
          <mxGeometry relative="1" as="geometry" />
        </mxCell>
        <mxCell id="cmwDNAxW-YF2_pqLreoF-8" value="twilio-user-input" style="sketch=0;points=[[0,0,0],[0.25,0,0],[0.5,0,0],[0.75,0,0],[1,0,0],[0,1,0],[0.25,1,0],[0.5,1,0],[0.75,1,0],[1,1,0],[0,0.25,0],[0,0.5,0],[0,0.75,0],[1,0.25,0],[1,0.5,0],[1,0.75,0]];outlineConnect=0;fontColor=#232F3E;gradientColor=#FF4F8B;gradientDirection=north;fillColor=#BC1356;strokeColor=#ffffff;dashed=0;verticalLabelPosition=bottom;verticalAlign=top;align=center;html=1;fontSize=13;fontStyle=0;aspect=fixed;shape=mxgraph.aws4.resourceIcon;resIcon=mxgraph.aws4.sqs;labelBorderColor=none;" parent="1" vertex="1">
          <mxGeometry x="572" y="60" width="48" height="48" as="geometry" />
        </mxCell>
        <mxCell id="cmwDNAxW-YF2_pqLreoF-9" style="edgeStyle=orthogonalEdgeStyle;rounded=1;orthogonalLoop=1;jettySize=auto;html=1;exitX=0.5;exitY=1;exitDx=0;exitDy=0;exitPerimeter=0;labelBackgroundColor=none;fontFamily=Verdana;fontSize=11;fontColor=#000000;startArrow=none;startFill=0;endArrow=classic;endFill=1;entryX=0.25;entryY=0;entryDx=0;entryDy=0;entryPerimeter=0;" parent="1" source="cmwDNAxW-YF2_pqLreoF-10" target="cmwDNAxW-YF2_pqLreoF-11" edge="1">
          <mxGeometry relative="1" as="geometry">
            <Array as="points">
              <mxPoint x="744" y="150" />
              <mxPoint x="278" y="150" />
            </Array>
          </mxGeometry>
        </mxCell>
        <UserObject label="&lt;span style=&quot;color: rgb(66, 119, 187); background-color: rgb(255, 255, 255);&quot;&gt;Twilio User Input Worker&lt;/span&gt;" id="cmwDNAxW-YF2_pqLreoF-10">
          <mxCell style="outlineConnect=0;dashed=0;verticalLabelPosition=bottom;verticalAlign=top;align=center;html=1;shape=mxgraph.aws3.android;fillColor=#EE472A;gradientColor=none;aspect=fixed;" parent="1" vertex="1">
            <mxGeometry x="720" y="60" width="48" height="48" as="geometry" />
          </mxCell>
        </UserObject>
        <mxCell id="cmwDNAxW-YF2_pqLreoF-11" value="" style="points=[[0.25,0,0],[0.5,0,0],[0.75,0,0],[1,0.25,0],[1,0.5,0],[1,0.75,0],[0.75,1,0],[0.5,1,0],[0.25,1,0],[0,0.75,0],[0,0.5,0],[0,0.25,0]];shape=mxgraph.bpmn.task;whiteSpace=wrap;rectStyle=rounded;size=10;taskMarker=abstract;isLoopStandard=1;container=1;" parent="1" vertex="1">
          <mxGeometry x="30" y="170" width="990" height="580" as="geometry" />
        </mxCell>
        <mxCell id="cmwDNAxW-YF2_pqLreoF-12" value="" style="ellipse;html=1;shape=startState;fillColor=#000000;strokeColor=#ff0000;labelBackgroundColor=none;labelBorderColor=none;fontFamily=Verdana;fontSize=11;fontColor=#000000;" parent="cmwDNAxW-YF2_pqLreoF-11" vertex="1">
          <mxGeometry x="12.87" y="9.34" width="71.64" height="64.31" as="geometry" />
        </mxCell>
        <mxCell id="cmwDNAxW-YF2_pqLreoF-23" value="" style="sketch=0;points=[[0,0,0],[0.25,0,0],[0.5,0,0],[0.75,0,0],[1,0,0],[0,1,0],[0.25,1,0],[0.5,1,0],[0.75,1,0],[1,1,0],[0,0.25,0],[0,0.5,0],[0,0.75,0],[1,0.25,0],[1,0.5,0],[1,0.75,0]];outlineConnect=0;fontColor=#232F3E;gradientColor=#4D72F3;gradientDirection=north;fillColor=#3334B9;strokeColor=#ffffff;dashed=0;verticalLabelPosition=bottom;verticalAlign=top;align=center;html=1;fontSize=12;fontStyle=0;aspect=fixed;shape=mxgraph.aws4.resourceIcon;resIcon=mxgraph.aws4.rds;labelBackgroundColor=none;labelBorderColor=default;fontFamily=Verdana;" parent="cmwDNAxW-YF2_pqLreoF-11" vertex="1">
          <mxGeometry x="249.99658536585366" y="146.28444444444446" width="48" height="48" as="geometry" />
        </mxCell>
        <mxCell id="cmwDNAxW-YF2_pqLreoF-40" style="edgeStyle=orthogonalEdgeStyle;rounded=1;orthogonalLoop=1;jettySize=auto;html=1;entryX=0.5;entryY=0;entryDx=0;entryDy=0;exitX=0.5;exitY=1;exitDx=0;exitDy=0;" parent="cmwDNAxW-YF2_pqLreoF-11" source="cmwDNAxW-YF2_pqLreoF-17" target="cmwDNAxW-YF2_pqLreoF-35" edge="1">
          <mxGeometry relative="1" as="geometry">
            <Array as="points">
              <mxPoint x="875" y="300" />
              <mxPoint x="708" y="300" />
            </Array>
          </mxGeometry>
        </mxCell>
        <mxCell id="cmwDNAxW-YF2_pqLreoF-17" value="Update Contact subscription status&lt;br&gt;Active/Unsubscribed" style="rounded=1;whiteSpace=wrap;html=1;labelBackgroundColor=none;labelBorderColor=none;fontFamily=Verdana;fontSize=11;" parent="cmwDNAxW-YF2_pqLreoF-11" vertex="1">
          <mxGeometry x="806.28" y="230" width="137.44" height="51.67" as="geometry" />
        </mxCell>
        <mxCell id="cmwDNAxW-YF2_pqLreoF-15" style="edgeStyle=orthogonalEdgeStyle;rounded=1;orthogonalLoop=1;jettySize=auto;html=1;exitX=0;exitY=0.5;exitDx=0;exitDy=0;entryX=0.5;entryY=1;entryDx=0;entryDy=0;entryPerimeter=0;labelBackgroundColor=none;fontFamily=Verdana;fontSize=11;fontColor=#000000;startArrow=none;startFill=0;endArrow=classic;endFill=1;dashed=1;" parent="cmwDNAxW-YF2_pqLreoF-11" source="cmwDNAxW-YF2_pqLreoF-17" target="cmwDNAxW-YF2_pqLreoF-23" edge="1">
          <mxGeometry relative="1" as="geometry" />
        </mxCell>
        <mxCell id="cmwDNAxW-YF2_pqLreoF-29" value="yes" style="edgeStyle=orthogonalEdgeStyle;rounded=0;orthogonalLoop=1;jettySize=auto;html=1;entryX=0.5;entryY=0;entryDx=0;entryDy=0;dashed=1;" parent="cmwDNAxW-YF2_pqLreoF-11" source="cmwDNAxW-YF2_pqLreoF-24" target="cmwDNAxW-YF2_pqLreoF-26" edge="1">
          <mxGeometry relative="1" as="geometry" />
        </mxCell>
        <mxCell id="cmwDNAxW-YF2_pqLreoF-31" value="no" style="edgeStyle=orthogonalEdgeStyle;rounded=0;orthogonalLoop=1;jettySize=auto;html=1;entryX=0.5;entryY=0;entryDx=0;entryDy=0;dashed=1;" parent="cmwDNAxW-YF2_pqLreoF-11" source="cmwDNAxW-YF2_pqLreoF-24" target="cmwDNAxW-YF2_pqLreoF-28" edge="1">
          <mxGeometry relative="1" as="geometry" />
        </mxCell>
        <mxCell id="cmwDNAxW-YF2_pqLreoF-24" value="is Global?" style="rhombus;whiteSpace=wrap;html=1;" parent="cmwDNAxW-YF2_pqLreoF-11" vertex="1">
          <mxGeometry x="660" y="70" width="96.59" height="86.08" as="geometry" />
        </mxCell>
        <mxCell id="cmwDNAxW-YF2_pqLreoF-32" style="edgeStyle=orthogonalEdgeStyle;rounded=0;orthogonalLoop=1;jettySize=auto;html=1;entryX=1;entryY=0.5;entryDx=0;entryDy=0;entryPerimeter=0;dashed=1;" parent="cmwDNAxW-YF2_pqLreoF-11" source="cmwDNAxW-YF2_pqLreoF-26" target="cmwDNAxW-YF2_pqLreoF-23" edge="1">
          <mxGeometry relative="1" as="geometry" />
        </mxCell>
        <mxCell id="cmwDNAxW-YF2_pqLreoF-42" style="edgeStyle=orthogonalEdgeStyle;rounded=1;orthogonalLoop=1;jettySize=auto;html=1;entryX=0.5;entryY=0;entryDx=0;entryDy=0;" parent="cmwDNAxW-YF2_pqLreoF-11" source="cmwDNAxW-YF2_pqLreoF-26" target="cmwDNAxW-YF2_pqLreoF-35" edge="1">
          <mxGeometry relative="1" as="geometry">
            <Array as="points">
              <mxPoint x="515" y="300" />
              <mxPoint x="708" y="300" />
            </Array>
          </mxGeometry>
        </mxCell>
        <mxCell id="cmwDNAxW-YF2_pqLreoF-26" value="Update Global OptOut with phone number" style="rounded=1;whiteSpace=wrap;html=1;" parent="cmwDNAxW-YF2_pqLreoF-11" vertex="1">
          <mxGeometry x="470" y="140" width="90" height="60.56" as="geometry" />
        </mxCell>
        <mxCell id="cmwDNAxW-YF2_pqLreoF-33" style="edgeStyle=orthogonalEdgeStyle;rounded=0;orthogonalLoop=1;jettySize=auto;html=1;entryX=0.5;entryY=0;entryDx=0;entryDy=0;dashed=1;" parent="cmwDNAxW-YF2_pqLreoF-11" source="cmwDNAxW-YF2_pqLreoF-28" target="cmwDNAxW-YF2_pqLreoF-17" edge="1">
          <mxGeometry relative="1" as="geometry" />
        </mxCell>
        <mxCell id="cmwDNAxW-YF2_pqLreoF-28" value="Find contacts by phone number" style="rounded=1;whiteSpace=wrap;html=1;" parent="cmwDNAxW-YF2_pqLreoF-11" vertex="1">
          <mxGeometry x="830" y="140" width="90" height="60.56" as="geometry" />
        </mxCell>
        <mxCell id="cmwDNAxW-YF2_pqLreoF-44" style="edgeStyle=orthogonalEdgeStyle;rounded=0;orthogonalLoop=1;jettySize=auto;html=1;entryX=0.5;entryY=0;entryDx=0;entryDy=0;" parent="cmwDNAxW-YF2_pqLreoF-11" source="cmwDNAxW-YF2_pqLreoF-35" target="cmwDNAxW-YF2_pqLreoF-43" edge="1">
          <mxGeometry relative="1" as="geometry" />
        </mxCell>
        <mxCell id="cmwDNAxW-YF2_pqLreoF-35" value="Find latest message with the same phone number&lt;br&gt;and MessagingServiceSid" style="rounded=1;whiteSpace=wrap;html=1;labelBackgroundColor=none;labelBorderColor=none;fontFamily=Verdana;fontSize=11;" parent="cmwDNAxW-YF2_pqLreoF-11" vertex="1">
          <mxGeometry x="637.4499999999999" y="320" width="141.7" height="60" as="geometry" />
        </mxCell>
        <mxCell id="cmwDNAxW-YF2_pqLreoF-46" style="edgeStyle=orthogonalEdgeStyle;rounded=0;orthogonalLoop=1;jettySize=auto;html=1;entryX=0.5;entryY=0;entryDx=0;entryDy=0;" parent="cmwDNAxW-YF2_pqLreoF-11" source="cmwDNAxW-YF2_pqLreoF-43" target="cmwDNAxW-YF2_pqLreoF-45" edge="1">
          <mxGeometry relative="1" as="geometry" />
        </mxCell>
        <mxCell id="cmwDNAxW-YF2_pqLreoF-43" value="Set source type (Trigger/Broadcast) and UUID for new message&amp;nbsp;" style="rounded=1;whiteSpace=wrap;html=1;labelBackgroundColor=none;labelBorderColor=none;fontFamily=Verdana;fontSize=11;" parent="cmwDNAxW-YF2_pqLreoF-11" vertex="1">
          <mxGeometry x="648.3" y="415" width="120" height="57" as="geometry" />
        </mxCell>
        <mxCell id="cmwDNAxW-YF2_pqLreoF-47" style="edgeStyle=orthogonalEdgeStyle;rounded=0;orthogonalLoop=1;jettySize=auto;html=1;entryX=0.5;entryY=1;entryDx=0;entryDy=0;entryPerimeter=0;dashed=1;" parent="cmwDNAxW-YF2_pqLreoF-11" source="cmwDNAxW-YF2_pqLreoF-45" target="cmwDNAxW-YF2_pqLreoF-23" edge="1">
          <mxGeometry relative="1" as="geometry" />
        </mxCell>
        <mxCell id="cmwDNAxW-YF2_pqLreoF-48" style="edgeStyle=orthogonalEdgeStyle;rounded=0;orthogonalLoop=1;jettySize=auto;html=1;entryX=0.5;entryY=1;entryDx=0;entryDy=0;" parent="cmwDNAxW-YF2_pqLreoF-11" source="cmwDNAxW-YF2_pqLreoF-45" target="cmwDNAxW-YF2_pqLreoF-12" edge="1">
          <mxGeometry relative="1" as="geometry" />
        </mxCell>
        <mxCell id="cmwDNAxW-YF2_pqLreoF-45" value="Save new message" style="rounded=1;whiteSpace=wrap;html=1;labelBackgroundColor=none;labelBorderColor=none;fontFamily=Verdana;fontSize=11;" parent="cmwDNAxW-YF2_pqLreoF-11" vertex="1">
          <mxGeometry x="648.3" y="500" width="120" height="57" as="geometry" />
        </mxCell>
        <mxCell id="cmwDNAxW-YF2_pqLreoF-13" style="edgeStyle=orthogonalEdgeStyle;rounded=1;orthogonalLoop=1;jettySize=auto;html=1;exitX=1;exitY=0.5;exitDx=0;exitDy=0;labelBackgroundColor=none;fontFamily=Verdana;fontSize=11;fontColor=#000000;startArrow=none;startFill=0;endArrow=classic;endFill=1;" parent="1" source="cmwDNAxW-YF2_pqLreoF-14" target="cmwDNAxW-YF2_pqLreoF-18" edge="1">
          <mxGeometry relative="1" as="geometry" />
        </mxCell>
        <mxCell id="cmwDNAxW-YF2_pqLreoF-14" value="Parse Callback Body" style="rounded=1;whiteSpace=wrap;html=1;" parent="1" vertex="1">
          <mxGeometry x="150" y="183" width="120" height="57" as="geometry" />
        </mxCell>
        <mxCell id="cmwDNAxW-YF2_pqLreoF-18" value="Get OptOut keyword&lt;br&gt;from Message Body" style="rounded=1;whiteSpace=wrap;html=1;labelBackgroundColor=none;labelBorderColor=none;fontFamily=Verdana;fontSize=11;" parent="1" vertex="1">
          <mxGeometry x="310" y="183" width="120" height="57" as="geometry" />
        </mxCell>
        <mxCell id="cmwDNAxW-YF2_pqLreoF-19" value="Find organization by MessagingServiceSid" style="rounded=1;whiteSpace=wrap;html=1;labelBackgroundColor=none;labelBorderColor=none;fontFamily=Verdana;fontSize=11;" parent="1" vertex="1">
          <mxGeometry x="470" y="183" width="120" height="57" as="geometry" />
        </mxCell>
        <mxCell id="cmwDNAxW-YF2_pqLreoF-20" style="edgeStyle=orthogonalEdgeStyle;rounded=1;orthogonalLoop=1;jettySize=auto;html=1;exitX=1;exitY=0.5;exitDx=0;exitDy=0;entryX=0;entryY=0.5;entryDx=0;entryDy=0;labelBackgroundColor=none;fontFamily=Verdana;fontSize=11;fontColor=#000000;startArrow=none;startFill=0;endArrow=classic;endFill=1;" parent="1" source="cmwDNAxW-YF2_pqLreoF-18" target="cmwDNAxW-YF2_pqLreoF-19" edge="1">
          <mxGeometry relative="1" as="geometry" />
        </mxCell>
        <mxCell id="cmwDNAxW-YF2_pqLreoF-21" style="edgeStyle=orthogonalEdgeStyle;rounded=1;orthogonalLoop=1;jettySize=auto;html=1;exitX=1;exitY=0.5;exitDx=0;exitDy=0;entryX=0.5;entryY=0;entryDx=0;entryDy=0;labelBackgroundColor=none;fontFamily=Verdana;fontSize=11;fontColor=#000000;startArrow=none;startFill=0;endArrow=classic;endFill=1;" parent="1" source="cmwDNAxW-YF2_pqLreoF-19" target="cmwDNAxW-YF2_pqLreoF-24" edge="1">
          <mxGeometry relative="1" as="geometry" />
        </mxCell>
        <mxCell id="cmwDNAxW-YF2_pqLreoF-22" value="" style="edgeStyle=orthogonalEdgeStyle;html=1;verticalAlign=bottom;endArrow=open;endSize=8;strokeColor=#ff0000;rounded=1;labelBackgroundColor=none;fontFamily=Verdana;fontSize=11;fontColor=#000000;entryX=0;entryY=0.5;entryDx=0;entryDy=0;" parent="1" source="cmwDNAxW-YF2_pqLreoF-12" target="cmwDNAxW-YF2_pqLreoF-14" edge="1">
          <mxGeometry relative="1" as="geometry">
            <mxPoint x="125" y="330" as="targetPoint" />
          </mxGeometry>
        </mxCell>
      </root>
    </mxGraphModel>
  </diagram>
  <diagram id="ypIBJQLLj0sejiHStTrf" name="Callback">
    <mxGraphModel dx="1316" dy="802" grid="1" gridSize="10" guides="1" tooltips="1" connect="1" arrows="1" fold="1" page="1" pageScale="1" pageWidth="1100" pageHeight="850" math="0" shadow="0">
      <root>
        <mxCell id="0" />
        <mxCell id="1" parent="0" />
        <mxCell id="Wb9j6_CxmzJkG1KigjmL-1" style="edgeStyle=orthogonalEdgeStyle;rounded=1;orthogonalLoop=1;jettySize=auto;html=1;exitX=1;exitY=0.5;exitDx=0;exitDy=0;entryX=0;entryY=0.5;entryDx=0;entryDy=0;entryPerimeter=0;labelBackgroundColor=none;fontSize=11;fontColor=#FF2908;startArrow=none;startFill=0;" edge="1" parent="1" source="Wb9j6_CxmzJkG1KigjmL-2" target="Wb9j6_CxmzJkG1KigjmL-4">
          <mxGeometry relative="1" as="geometry" />
        </mxCell>
        <mxCell id="Wb9j6_CxmzJkG1KigjmL-2" value="" style="shape=image;verticalLabelPosition=bottom;labelBackgroundColor=default;verticalAlign=top;aspect=fixed;imageAspect=0;image=data:image/png,iVBORw0KGgoAAAANSUhEUgAAAIMAAAAwCAYAAAAyw8m9AAAAAXNSR0IArs4c6QAAAARnQU1BAACxjwv8YQUAAAAJcEhZcwAADsMAAA7DAcdvqGQAAA5ySURBVHhe7ZwLkBTVFYZPz3NndhcUNCIloigPn6iREEQ3PIxbCKKFIphERQuIG7BEVNYYpSwkGjBaoKyokCBqIYIaIcHUYiGWaChLLeWhEipgEAtEXgK7s495dM5/+vZMd0/37C6wi5L+qrpmuvv27e57/3vuOefOrqYz5OPDBNSnj48vBp8cvhh8shw1nyG96T+U2fIVpd7/iNKbt5D+9S6ixkY5p53YnujUkyh04TkU7HsxBbufRYEuneWczw+HIxNDbYIaq1dTctlKyqzbRHQwQRQKEsUixnlNMz5xi1SaKMkbPju2p+BFvShy+038eT5psahRzueYcthiSK39hOoffoIyG7byyC82RGB2flPglnWNpNfUU2jo5RS95w4K9jpbnfQ5VrRcDGwN6qbPomTVa6R1OZEoHFInFGZ1sABWIBbgFEyigfRvD1J0xl0UrbhVHfQ5FrRIDPr+A1Q7djLpG7YQxR2mHdUcqpMpQjvtFKKSGGklJcapmhqivQdJ37Fb9mUasYpCXRscWkaxmVP9aeMY0WwxiBBGV5D+1Q67EPhyffdB7vgiitx9G4X6/ZQCnTuR9pOTVAEuUsejf89eynyzk5LLqym5cDlpRWGi0lhOFKYgBvel+Lw/G8d82pTmiYGnhppb7sy3CGziqX0JRSbcTNExo9TBZsD11T/3IiWfXczTDE8flqlG/+4AhW8dTrHHHlBHDg8IsK0tDO7phfksXmVwvjnXtybNEkPd7x+l1Osr7ULgyCFwxSUUm1552GFi+rONVFf5aL614bojj95D0dHXqQPNA9Yr9el6Sr29hi3Rvja3MGgnhNV51NRRbPY0Sq3+gJJvVssUaoOn0OK/zaeGZxdS6uN16qCd2EN3S+TVmjQpBnRYbdktpHU7WR1huLO0vudT8V9nHbFiM9t3UOLGCaQfPJizEHgknj6K/76gSaFhNKXeeY9SH31K6eq1lNm2U6YgrXsXKqlepEq1DTU38TT6yZeGtbOg76+l4rfmU/Kf71By3tJc6K3Qt++n0m2rqW7qTEqveC/vPELy2MInZApuTQpnIBE58MiVqMGEpwbM604hoFOReNK/26OO5JMtwyPYBJ1dvGweae3a8UunjIPwI/g+9TOrjH0vMH31Lqe6cQ9RatFbpCdq2Vdpn9+YbYk57Vk28Y+KiozziKoc5204z8u+XVytRUExJN/9QPII2QfGiGUfoWjqZNsc2DB3ISVuvou3SVR7Y4XsW+c/dH7dwzPFAkgZdkQb31ihznLfs7NZ9OSDxo5pqHjaSL2+SsTjhR4IktbxRNJOZiFhmnGGrW1NY6NYAUm+WTZ9Dx+rr1eFCoPci+16dqqlzjag4DRRe+tdlPl4Y04M/HCRqRNtziI6vqFytmE9oOJUWsxe9KnKbLnEnX+QjpVOA6pM7M3ZFB50hXGMyfNN+H7hib+mosl3GPsOILjaQaPFItiEwBYG4W1bTxPJd9ZQ5ru9as9OpHyg+ATJBW/Y/SNG37pbpgn4O5mv2X9yIXL1YFuE1hp4igEjMjF6gjFS0dD45E4s/XyVKmGY/doR4401CGdnnNyBipfMpcyOb9kiTMzPLaDMhT1s0w3qq+k7wjD1QHVq8UtP5TUEMqB6HUcllTPy78/PqsWLKXxL0w5ooGc3myBhsfRd9qkOjpt1vpZOd+u0Insnm2iRMIWHXEkNs57zFEO7ne9Tav2XlN62XR21E73mKqLiuNozwGCAT5esZgu64d+yHqSFeEo6oxOFy35OoYH9W5TZ9RRDcsXbVH/nNKJ26gFgFe4ba8sS4kESY+7JCcZE7ccXV7EYdlL9WA4TzXpMPDoaViRd/YHRYKiHzWT8rQV5L3WoxwAxqWJtrPc2UdcWQq9PUqDfeVTy4tPS0PB3aq8dZxODWab45WdEtGKNhvyGMpu3G75AE8j1XU8Vv6jhL4sKiiGb2T2pWJ1RsMWNL59vawNZDnhqvuGwItuLwQbLLCd5v44HSGmMgmV9KDrhtmaJwtNngHeerRwNyzdzerNaxw48hbg3iBaLk8YNjE+pB3U46dBeylgJDbzMeBmgOjnFosuDfRdPIQAchwCxcaNoF/eQBTJJdKnjuF7/dDPp7IiC9JZtpO/dby/DViqz9nNJmoEMj1z9+4PGvVUZqZ+jF+30TrZr5Xqs27RzhJJeRNnZ7GSpFxvqc4inYfGblLieI7D1mw0RoBymcrwzNnzHMQYDKzF8rAzcpvAUA8xO1ovlzsEoRmbRCiKB0NAyyUBKZ6sN+6GR5cZ5ZCT79TZGqbUM+wyRkcPyTF+wW1fjBVEOsJAy674wvh8uPEpC/ftQ4NyzckID3HAYuamNPLoYmFvBITBYgOSqNfI9/QW3Cxw7axnUX14my/S2+lsBCKFh/DRDjKYAvMA5CIn7MTGioklBeEcTO/blLAPAKHZxYGL3TaTw+BHGjWGaIhHZj1bcpkpwmemVsu4gcBnM51iYiowYahyzIIKLW0YSv0hmxy61YyGZbLrhTfFBzFxvsBeLAcvoFpBGT3/IVpBJLa02hOiEj6U/WS9fU6v/ZW8XwPWH+rHYShzm/SgDn6rxifmkncn94CYC832dQDT8zHUzqmxRnhNPMTg9dM8X5ZEde3iK+AfxJXOo+I3nZd+ag4CFiD/9R4q/+oyUiS+p8l6hLC1VX3LIQpcD7QQeGcDt5U0cDRYa0N8I3ayw2NKbtkhDw1q5NjKs04bNRp5kzcd2waj744c7eiMLtJXAdNr48mtEew/kPyM/A9L4Mhh5k+/OdmELoX+4saB1KJhn+CFT8u5SiWxgZfJeHImxKy6l0s+qqXTdSirdukZS2+gwiVSs5bmj9W93S4LLllyzwo2PFVfpDOcUAasDf4Q7S1e/7DrqsF+m791HyVdXGD6EFbwLW+PYy49T6eZ3ZYvNe8QQhrNdWMSNi9iB9cBTDM5GztR4JD6QpURCicNQhJAINbFvNUcYUYgSEqN+J2WQfEJ+wpVDh9SXHOZSuJNCJs8V7rDQkF8YDWWCjt611xjxZj7FDW5I187gusIjr1E7rQPCxZRX8o19sfBNw2zhcXjoLyl0PYei1vcEysJ54W0ZOnOkYJ2T9x1wTTXXPT6Hks+z2iAcmE8eHdhvmLtAleAyD84wcu6Ay2AKQqLKmoU0QV6CEpaQkOf4QOdT1M6RE+h9rv29mgusAd7RahWwz+IItfICkoAUvnOkM3CAgxedp/ZyuL4nhG9ZCnDiKYbgBT1zzhZM6Te7jI6ygBGf4k7Ohnhqwz6cMTnP8XBm7TpjRFnLsEluXPoPsSxW0lu3GYpGOcAvJC92lIgMutxIDzdFMpXf+OYzmWCK4Agl0LWLOtCKxNTahgNEOgh186h3sZr8PmLxPfAUQ6jPxTlloRG4g9CxVjCPiVfvArKDiN/xKfU4GxLsY2vjEIPNW1ed0eKRhwhkDz+bC4iIApcgqlCLYm7wucCl53PMz167y2jMwm0S6tPb5iy3BnqKR3/Ps93bENPXspW2EQ8LnnxlmWGprUC8PU5XO/l4iiFw1plG4sJsDB7ZjXNeNL4rPJNOuCl7+4EOJ/Cm1izcGpXDVWv0IJbkdY71zSQL6uneReppETz3IzPX8MKrkkmFf2IVcmj4YMP6eMHnwtdeRcF+FxUsBwsTZkvT6vCAC5x2KmnndJM2scHvCsubmDRVpl1stRWVxm9EHD4QFrxCQwaqvXy8p4leZ7N57pW7ubIOaGAThIyR20fyjdmXMM0qfyJEC4+5QUYh8vrBcg7prIkpVSY67le2UdXwzAsS92fByCsvc81vZInyCzsbCLCgGqfNkeVt+CeZnbkpTjoQo8ZNoIx08uV9KXLd1fmhqAlfGzivKwV6dlcHWhdY0FjlBEOczufmd8WCYsO9f5JN3/Tf3IAygbXr0UUWzLzwdiCZyI3D7MunsA5VL8kINomMGS0JJCxMIcTBpySURuUWiWLTpkgiSuYrlDntFCp64RGbB4yRm1rOVsFi2uAcha++Uu3lAyEFLuCwzpFIysKWTULJEru5DHbvRlqvM9xFhEbjaUSmE/YFsK7gKhrulGB5v1afIqxgYIXHjXRfc4EVgCU3U9NW8Pz8vNH7xht/0ORBQTGEB/TnxmbThFEPYB0O1FD9tCezYR0aAwmk+EuzeZslK5XYtzYSHkASU0uqjDKL59qyj5jj6idPN3bMeTHRwOHR4CYXWLCW4Tl6veAQM9gjPxspcKOFRw2Tr3ju4IA+xmh0wkISv6qNiU76rfzc0DWx5AasMFtuLDIi5CxEQTFIdnHGA0ZmzoTNT3rVh1R7+yRbnI8pAx1XyKRny1jUCSsjK4XOn73xfYqmsFlsAogKf4gjjQPR4lrnVpPfmeHh5fL3GrZyuB6h4sD+qhSPRnYQRWzWctiY0GU/k08bEJijnA1YI+t5Zxmcx3OYm1legUFWvHA2Re4dY4gUSTC39+ZjaBNY6tgrM7wzvhYKi4ER0zThBhmpWdgUIbWZuGOKbcpoKbIEPvZeY6XQatrYDEburxDxNIf4rGkUfajCMP2wLGhANBR/R0QQGjUobxSLT8RzPqat7MbP4AwV4TvIUrW1HOrty9GGw+RqOIe52loW6yzmD2CjvN+xvVxn27DWwOCnf7L6ye9h2/iZnKu7+MEPlrUxbUgZPIu6p9R5YQ+KPnm//NC2KYtg0qxfR8tvDX8MP5XnetMQZ329WC3xKRx/w2EFQnaGtmh0pwjdfnqHCMdZr1t9JjLd8bnMvu/VETvmPb2yqoV8E1yDJXbz3m7P1hyaJwYGcWyb/BHN0DJZ1PJpe5otBiCC8P+87rilRWIQ2BT5f3h7fNJyMSjkN3j+n+QfVxy2GAS2Ev4/6zh+ODIxWIDH7f8bnx83R00MPj9+mkw6+fz/4IvBJ4svBp8svhh8svhi8Mnii8Eniy8GHwXR/wABvkqZLAA7EgAAAABJRU5ErkJggg==;imageBorder=default;" vertex="1" parent="1">
          <mxGeometry x="80" y="60.00000000000003" width="131" height="48" as="geometry" />
        </mxCell>
        <mxCell id="Wb9j6_CxmzJkG1KigjmL-3" style="edgeStyle=orthogonalEdgeStyle;rounded=1;orthogonalLoop=1;jettySize=auto;html=1;exitX=1;exitY=0.5;exitDx=0;exitDy=0;exitPerimeter=0;entryX=0;entryY=0.5;entryDx=0;entryDy=0;entryPerimeter=0;labelBackgroundColor=none;fontFamily=Verdana;fontSize=11;fontColor=#000000;startArrow=none;startFill=0;" edge="1" parent="1" source="Wb9j6_CxmzJkG1KigjmL-4" target="Wb9j6_CxmzJkG1KigjmL-6">
          <mxGeometry relative="1" as="geometry" />
        </mxCell>
        <UserObject label="api_twilio_callback" id="Wb9j6_CxmzJkG1KigjmL-4">
          <mxCell style="sketch=0;points=[[0,0,0],[0.25,0,0],[0.5,0,0],[0.75,0,0],[1,0,0],[0,1,0],[0.25,1,0],[0.5,1,0],[0.75,1,0],[1,1,0],[0,0.25,0],[0,0.5,0],[0,0.75,0],[1,0.25,0],[1,0.5,0],[1,0.75,0]];outlineConnect=0;fontColor=#232F3E;gradientColor=#FF4F8B;gradientDirection=north;fillColor=#BC1356;strokeColor=#ffffff;dashed=0;verticalLabelPosition=bottom;verticalAlign=top;align=center;html=1;fontSize=12;fontStyle=0;aspect=fixed;shape=mxgraph.aws4.resourceIcon;resIcon=mxgraph.aws4.api_gateway;" vertex="1" parent="1">
            <mxGeometry x="280" y="60" width="48" height="48" as="geometry" />
          </mxCell>
        </UserObject>
        <mxCell id="Wb9j6_CxmzJkG1KigjmL-5" style="edgeStyle=orthogonalEdgeStyle;rounded=1;orthogonalLoop=1;jettySize=auto;html=1;exitX=1;exitY=0.5;exitDx=0;exitDy=0;exitPerimeter=0;entryX=0;entryY=0.5;entryDx=0;entryDy=0;entryPerimeter=0;labelBackgroundColor=none;fontFamily=Verdana;fontSize=11;fontColor=#000000;startArrow=none;startFill=0;" edge="1" parent="1" source="Wb9j6_CxmzJkG1KigjmL-6" target="Wb9j6_CxmzJkG1KigjmL-8">
          <mxGeometry relative="1" as="geometry" />
        </mxCell>
        <mxCell id="Wb9j6_CxmzJkG1KigjmL-6" value="&lt;div style=&quot;font-size: 9.8pt;&quot;&gt;twilio-callback&lt;/div&gt;" style="outlineConnect=0;dashed=0;verticalLabelPosition=bottom;verticalAlign=top;align=center;html=1;shape=mxgraph.aws3.lambda_function;fillColor=#F58534;gradientColor=none;labelBackgroundColor=none;fontSize=11;fontColor=#000000;fontFamily=Verdana;aspect=fixed;" vertex="1" parent="1">
          <mxGeometry x="420" y="60" width="48" height="48" as="geometry" />
        </mxCell>
        <mxCell id="Wb9j6_CxmzJkG1KigjmL-7" style="edgeStyle=orthogonalEdgeStyle;rounded=1;orthogonalLoop=1;jettySize=auto;html=1;exitX=1;exitY=0.5;exitDx=0;exitDy=0;exitPerimeter=0;entryX=0;entryY=0.5;entryDx=0;entryDy=0;entryPerimeter=0;dashed=1;labelBackgroundColor=none;fontFamily=Verdana;fontSize=11;fontColor=#000000;startArrow=none;startFill=0;endArrow=classic;endFill=1;" edge="1" parent="1" source="Wb9j6_CxmzJkG1KigjmL-8" target="Wb9j6_CxmzJkG1KigjmL-10">
          <mxGeometry relative="1" as="geometry" />
        </mxCell>
        <mxCell id="Wb9j6_CxmzJkG1KigjmL-8" value="twilio-callback" style="sketch=0;points=[[0,0,0],[0.25,0,0],[0.5,0,0],[0.75,0,0],[1,0,0],[0,1,0],[0.25,1,0],[0.5,1,0],[0.75,1,0],[1,1,0],[0,0.25,0],[0,0.5,0],[0,0.75,0],[1,0.25,0],[1,0.5,0],[1,0.75,0]];outlineConnect=0;fontColor=#232F3E;gradientColor=#FF4F8B;gradientDirection=north;fillColor=#BC1356;strokeColor=#ffffff;dashed=0;verticalLabelPosition=bottom;verticalAlign=top;align=center;html=1;fontSize=13;fontStyle=0;aspect=fixed;shape=mxgraph.aws4.resourceIcon;resIcon=mxgraph.aws4.sqs;labelBorderColor=none;" vertex="1" parent="1">
          <mxGeometry x="572" y="60" width="48" height="48" as="geometry" />
        </mxCell>
        <mxCell id="Wb9j6_CxmzJkG1KigjmL-9" style="edgeStyle=orthogonalEdgeStyle;rounded=1;orthogonalLoop=1;jettySize=auto;html=1;exitX=0.5;exitY=1;exitDx=0;exitDy=0;exitPerimeter=0;labelBackgroundColor=none;fontFamily=Verdana;fontSize=11;fontColor=#000000;startArrow=none;startFill=0;endArrow=classic;endFill=1;entryX=0.25;entryY=0;entryDx=0;entryDy=0;entryPerimeter=0;" edge="1" parent="1" source="Wb9j6_CxmzJkG1KigjmL-10" target="Wb9j6_CxmzJkG1KigjmL-11">
          <mxGeometry relative="1" as="geometry">
            <Array as="points">
              <mxPoint x="744" y="150" />
              <mxPoint x="270" y="150" />
            </Array>
          </mxGeometry>
        </mxCell>
        <UserObject label="&lt;span style=&quot;color: rgb(66, 119, 187); background-color: rgb(255, 255, 255);&quot;&gt;Callback Worker&lt;/span&gt;" id="Wb9j6_CxmzJkG1KigjmL-10">
          <mxCell style="outlineConnect=0;dashed=0;verticalLabelPosition=bottom;verticalAlign=top;align=center;html=1;shape=mxgraph.aws3.android;fillColor=#EE472A;gradientColor=none;aspect=fixed;" vertex="1" parent="1">
            <mxGeometry x="720" y="60" width="48" height="48" as="geometry" />
          </mxCell>
        </UserObject>
        <mxCell id="Wb9j6_CxmzJkG1KigjmL-11" value="" style="points=[[0.25,0,0],[0.5,0,0],[0.75,0,0],[1,0.25,0],[1,0.5,0],[1,0.75,0],[0.75,1,0],[0.5,1,0],[0.25,1,0],[0,0.75,0],[0,0.5,0],[0,0.25,0]];shape=mxgraph.bpmn.task;whiteSpace=wrap;rectStyle=rounded;size=10;taskMarker=abstract;isLoopStandard=1;container=1;" vertex="1" parent="1">
          <mxGeometry x="80" y="170" width="760" height="170" as="geometry" />
        </mxCell>
        <mxCell id="Wb9j6_CxmzJkG1KigjmL-12" style="edgeStyle=orthogonalEdgeStyle;rounded=1;orthogonalLoop=1;jettySize=auto;html=1;exitX=1;exitY=0.5;exitDx=0;exitDy=0;labelBackgroundColor=none;fontFamily=Verdana;fontSize=11;fontColor=#000000;startArrow=none;startFill=0;endArrow=classic;endFill=1;" edge="1" parent="1" source="Wb9j6_CxmzJkG1KigjmL-13" target="Wb9j6_CxmzJkG1KigjmL-17">
          <mxGeometry relative="1" as="geometry" />
        </mxCell>
        <mxCell id="Wb9j6_CxmzJkG1KigjmL-13" value="Read Batch Messages" style="rounded=1;whiteSpace=wrap;html=1;" vertex="1" parent="1">
          <mxGeometry x="150" y="183" width="120" height="40" as="geometry" />
        </mxCell>
        <mxCell id="Wb9j6_CxmzJkG1KigjmL-14" style="edgeStyle=orthogonalEdgeStyle;rounded=1;orthogonalLoop=1;jettySize=auto;html=1;exitX=0.5;exitY=1;exitDx=0;exitDy=0;entryX=0.5;entryY=0;entryDx=0;entryDy=0;entryPerimeter=0;labelBackgroundColor=none;fontFamily=Verdana;fontSize=11;fontColor=#000000;startArrow=none;startFill=0;endArrow=classic;endFill=1;dashed=1;" edge="1" parent="1" source="Wb9j6_CxmzJkG1KigjmL-16" target="Wb9j6_CxmzJkG1KigjmL-23">
          <mxGeometry relative="1" as="geometry" />
        </mxCell>
        <mxCell id="Wb9j6_CxmzJkG1KigjmL-15" style="edgeStyle=orthogonalEdgeStyle;rounded=1;orthogonalLoop=1;jettySize=auto;html=1;exitX=1;exitY=0.5;exitDx=0;exitDy=0;entryX=0.5;entryY=1;entryDx=0;entryDy=0;labelBackgroundColor=none;fontFamily=Verdana;fontSize=11;fontColor=#000000;startArrow=none;startFill=0;endArrow=classic;endFill=1;" edge="1" parent="1" source="Wb9j6_CxmzJkG1KigjmL-16" target="Wb9j6_CxmzJkG1KigjmL-13">
          <mxGeometry relative="1" as="geometry">
            <Array as="points">
              <mxPoint x="790" y="203" />
              <mxPoint x="790" y="320" />
              <mxPoint x="210" y="320" />
            </Array>
          </mxGeometry>
        </mxCell>
        <mxCell id="Wb9j6_CxmzJkG1KigjmL-16" value="Update Message&lt;br&gt;&lt;b&gt;status&lt;/b&gt;" style="rounded=1;whiteSpace=wrap;html=1;labelBackgroundColor=none;labelBorderColor=none;fontFamily=Verdana;fontSize=11;" vertex="1" parent="1">
          <mxGeometry x="650" y="183" width="120" height="40" as="geometry" />
        </mxCell>
        <mxCell id="Wb9j6_CxmzJkG1KigjmL-17" value="Parse Callback Body" style="rounded=1;whiteSpace=wrap;html=1;labelBackgroundColor=none;labelBorderColor=none;fontFamily=Verdana;fontSize=11;" vertex="1" parent="1">
          <mxGeometry x="310" y="183" width="120" height="40" as="geometry" />
        </mxCell>
        <mxCell id="Wb9j6_CxmzJkG1KigjmL-18" value="Find message" style="rounded=1;whiteSpace=wrap;html=1;labelBackgroundColor=none;labelBorderColor=none;fontFamily=Verdana;fontSize=11;" vertex="1" parent="1">
          <mxGeometry x="470" y="183" width="120" height="40" as="geometry" />
        </mxCell>
        <mxCell id="Wb9j6_CxmzJkG1KigjmL-19" style="edgeStyle=orthogonalEdgeStyle;rounded=1;orthogonalLoop=1;jettySize=auto;html=1;exitX=1;exitY=0.5;exitDx=0;exitDy=0;entryX=0;entryY=0.5;entryDx=0;entryDy=0;labelBackgroundColor=none;fontFamily=Verdana;fontSize=11;fontColor=#000000;startArrow=none;startFill=0;endArrow=classic;endFill=1;" edge="1" parent="1" source="Wb9j6_CxmzJkG1KigjmL-17" target="Wb9j6_CxmzJkG1KigjmL-18">
          <mxGeometry relative="1" as="geometry" />
        </mxCell>
        <mxCell id="Wb9j6_CxmzJkG1KigjmL-20" style="edgeStyle=orthogonalEdgeStyle;rounded=1;orthogonalLoop=1;jettySize=auto;html=1;exitX=1;exitY=0.5;exitDx=0;exitDy=0;entryX=0;entryY=0.5;entryDx=0;entryDy=0;labelBackgroundColor=none;fontFamily=Verdana;fontSize=11;fontColor=#000000;startArrow=none;startFill=0;endArrow=classic;endFill=1;" edge="1" parent="1" source="Wb9j6_CxmzJkG1KigjmL-18" target="Wb9j6_CxmzJkG1KigjmL-16">
          <mxGeometry relative="1" as="geometry" />
        </mxCell>
        <mxCell id="Wb9j6_CxmzJkG1KigjmL-21" value="" style="ellipse;html=1;shape=startState;fillColor=#000000;strokeColor=#ff0000;labelBackgroundColor=none;labelBorderColor=none;fontFamily=Verdana;fontSize=11;fontColor=#000000;" vertex="1" parent="1">
          <mxGeometry x="90" y="188" width="30" height="30" as="geometry" />
        </mxCell>
        <mxCell id="Wb9j6_CxmzJkG1KigjmL-22" value="" style="edgeStyle=orthogonalEdgeStyle;html=1;verticalAlign=bottom;endArrow=open;endSize=8;strokeColor=#ff0000;rounded=1;labelBackgroundColor=none;fontFamily=Verdana;fontSize=11;fontColor=#000000;entryX=0;entryY=0.5;entryDx=0;entryDy=0;" edge="1" parent="1" source="Wb9j6_CxmzJkG1KigjmL-21" target="Wb9j6_CxmzJkG1KigjmL-13">
          <mxGeometry relative="1" as="geometry">
            <mxPoint x="125" y="330" as="targetPoint" />
          </mxGeometry>
        </mxCell>
        <mxCell id="Wb9j6_CxmzJkG1KigjmL-23" value="" style="sketch=0;points=[[0,0,0],[0.25,0,0],[0.5,0,0],[0.75,0,0],[1,0,0],[0,1,0],[0.25,1,0],[0.5,1,0],[0.75,1,0],[1,1,0],[0,0.25,0],[0,0.5,0],[0,0.75,0],[1,0.25,0],[1,0.5,0],[1,0.75,0]];outlineConnect=0;fontColor=#232F3E;gradientColor=#4D72F3;gradientDirection=north;fillColor=#3334B9;strokeColor=#ffffff;dashed=0;verticalLabelPosition=bottom;verticalAlign=top;align=center;html=1;fontSize=12;fontStyle=0;aspect=fixed;shape=mxgraph.aws4.resourceIcon;resIcon=mxgraph.aws4.rds;labelBackgroundColor=none;labelBorderColor=default;fontFamily=Verdana;" vertex="1" parent="1">
          <mxGeometry x="686" y="260" width="48" height="48" as="geometry" />
        </mxCell>
      </root>
    </mxGraphModel>
  </diagram>
</mxfile>
